<svg width="42" height="41" viewBox="0 0 42 41" fill="none" xmlns="http://www.w3.org/2000/svg">
<path d="M15.4231 3.35156L9.30469 9.43259" stroke="#161616" stroke-width="1.5" stroke-miterlimit="10" stroke-linecap="round" stroke-linejoin="round"/>
<path d="M26.2109 3.35156L32.3294 9.43259" stroke="#161616" stroke-width="1.5" stroke-miterlimit="10" stroke-linecap="round" stroke-linejoin="round"/>
<path d="M3.91797 13.1512C3.91797 10.0521 5.59134 9.80078 7.67037 9.80078H33.971C36.05 9.80078 37.7234 10.0521 37.7234 13.1512C37.7234 16.7529 36.05 16.5016 33.971 16.5016H7.67037C5.59134 16.5016 3.91797 16.7529 3.91797 13.1512Z" stroke="#161616" stroke-width="1.5"/>
<path d="M17.0352 23.4531V29.4001" stroke="#161616" stroke-width="1.5" stroke-linecap="round"/>
<path d="M24.8047 23.4531V29.4001" stroke="#161616" stroke-width="1.5" stroke-linecap="round"/>
<path d="M6.45312 16.7539L8.83641 31.2278C9.37729 34.4777 10.6788 36.8565 15.513 36.8565H25.7053C30.9621 36.8565 31.7396 34.5782 32.3481 31.4288L35.1877 16.7539" stroke="#161616" stroke-width="1.5" stroke-linecap="round"/>
</svg>
