<svg width="62" height="55" viewBox="0 0 62 55" fill="none" xmlns="http://www.w3.org/2000/svg">
<path d="M36.4439 21.216V27.8318H43.0519C43.5602 27.8318 43.8143 28.288 43.8143 28.7443L42.7977 33.0787C42.7977 33.3069 42.2894 33.535 42.0353 33.535H36.4439V50.1884H28.8194V33.7631H24.4988C23.9905 33.7631 23.7363 33.535 23.7363 33.0787V28.7443C23.7363 28.288 23.9905 28.0599 24.4988 28.0599H28.8194V20.5316C28.8194 16.6534 32.1233 13.6877 36.4439 13.6877H43.306C43.8143 13.6877 44.0685 13.9159 44.0685 14.3721V19.8472C44.0685 20.3035 43.8143 20.5316 43.306 20.5316H37.2064C36.6981 20.5316 36.4439 20.7598 36.4439 21.216Z" stroke="white" stroke-width="1.5" stroke-miterlimit="10" stroke-linecap="round"/>
<path d="M38.987 50.1884H23.7379C11.0303 50.1884 5.94727 45.6258 5.94727 34.2193V20.5316C5.94727 9.12509 11.0303 4.5625 23.7379 4.5625H38.987C51.6946 4.5625 56.7776 9.12509 56.7776 20.5316V34.2193C56.7776 45.6258 51.6946 50.1884 38.987 50.1884Z" stroke="white" stroke-width="1.5" stroke-linecap="round" stroke-linejoin="round"/>
</svg>
