<svg width="51" height="48" viewBox="0 0 51 48" fill="none" xmlns="http://www.w3.org/2000/svg">
<path d="M37.1137 1H13.7515C6.70904 1 1 6.33056 1 12.9061V34.7196C1 41.2952 6.70904 46.6257 13.7515 46.6257H37.1137C44.1562 46.6257 49.8652 41.2952 49.8652 34.7196V12.9061C49.8652 6.33056 44.1562 1 37.1137 1Z" stroke="white" stroke-width="1.5" stroke-linecap="round" stroke-linejoin="round"/>
<path d="M25.4308 35.7625C32.499 35.7625 38.2289 30.4125 38.2289 23.8129C38.2289 17.2133 32.499 11.8633 25.4308 11.8633C18.3627 11.8633 12.6328 17.2133 12.6328 23.8129C12.6328 30.4125 18.3627 35.7625 25.4308 35.7625Z" stroke="white" stroke-width="1.5" stroke-linecap="round" stroke-linejoin="round"/>
<path d="M39.3939 9.69223C40.0365 9.69223 40.5574 9.20585 40.5574 8.60588C40.5574 8.00591 40.0365 7.51953 39.3939 7.51953C38.7514 7.51953 38.2305 8.00591 38.2305 8.60588C38.2305 9.20585 38.7514 9.69223 39.3939 9.69223Z" stroke="white" stroke-width="1.5" stroke-linecap="round" stroke-linejoin="round"/>
</svg>
