<svg width="46" height="46" viewBox="0 0 46 46" fill="none" xmlns="http://www.w3.org/2000/svg">
<path d="M40.9609 36.4043V10.1543C40.9609 6.4043 39.0859 4.5293 35.3359 4.5293H27.8359C24.0859 4.5293 22.2109 6.4043 22.2109 10.1543V36.4043C22.2109 40.1543 24.0859 42.0293 27.8359 42.0293H35.3359C39.0859 42.0293 40.9609 40.1543 40.9609 36.4043Z" stroke="#161616" stroke-width="1.5" stroke-linecap="round"/>
<path d="M22.2109 12.0293H31.5859" stroke="#161616" stroke-width="1.5" stroke-linecap="round"/>
<path d="M22.2109 34.5293H29.7109" stroke="#161616" stroke-width="1.5" stroke-linecap="round"/>
<path d="M22.2109 26.9355L31.5859 27.0293" stroke="#161616" stroke-width="1.5" stroke-linecap="round"/>
<path d="M22.2109 19.5293H27.8359" stroke="#161616" stroke-width="1.5" stroke-linecap="round"/>
<path d="M10.9953 4.5293C7.93906 4.5293 5.44531 7.02305 5.44531 10.0605V34.3605C5.44531 35.2043 5.80156 36.4793 6.23281 37.2105L7.77031 39.7605C9.53281 42.7043 12.4391 42.7043 14.2016 39.7605L15.7391 37.2105C16.1703 36.4793 16.5266 35.2043 16.5266 34.3605V10.0605C16.5266 7.02305 14.0328 4.5293 10.9953 4.5293Z" stroke="#161616" stroke-width="1.5" stroke-linecap="round"/>
<path d="M16.5266 13.9043H5.44531" stroke="#161616" stroke-width="1.5" stroke-linecap="round"/>
</svg>
