<svg width="46" height="46" viewBox="0 0 46 46" fill="none" xmlns="http://www.w3.org/2000/svg">
<path d="M11.0156 19.5293C14.64 19.5293 17.5781 16.5912 17.5781 12.9668C17.5781 9.34243 14.64 6.4043 11.0156 6.4043C7.39126 6.4043 4.45312 9.34243 4.45312 12.9668C4.45312 16.5912 7.39126 19.5293 11.0156 19.5293Z" stroke="#161616" stroke-width="1.5" stroke-linecap="round" stroke-linejoin="round"/>
<path d="M11.0156 40.1543C14.64 40.1543 17.5781 37.2162 17.5781 33.5918C17.5781 29.9674 14.64 27.0293 11.0156 27.0293C7.39126 27.0293 4.45312 29.9674 4.45312 33.5918C4.45312 37.2162 7.39126 40.1543 11.0156 40.1543Z" stroke="#161616" stroke-width="1.5" stroke-linecap="round" stroke-linejoin="round"/>
<path d="M41.9531 12.0293L16.9219 30.7418" stroke="#161616" stroke-width="1.5" stroke-linecap="round" stroke-linejoin="round"/>
<path d="M41.9531 34.4734L16.9219 15.7422" stroke="#161616" stroke-width="1.5" stroke-linecap="round" stroke-linejoin="round"/>
</svg>
